<svg id="Layer_1" data-name="Layer 1" xmlns="http://www.w3.org/2000/svg" viewBox="0 0 1013 173"><defs><style>.cls-1{fill:#be1941;}.cls-2,.cls-3{fill:#fff;}.cls-3{font-size:40px;font-family:TheWave-Bold, The Wave;font-weight:700;}.cls-4{letter-spacing:-0.03em;}.cls-5{letter-spacing:0em;}.cls-6{letter-spacing:-0.02em;}.cls-7{letter-spacing:-0.09em;}.cls-8{letter-spacing:0em;}</style></defs><title>headerDWLogo</title><rect class="cls-1" width="1013" height="173"/><path class="cls-2" d="M857.3,68.33q4.13-7.29,8.61-14.65a.72.72,0,0,1,.38-.27l8.88-2.58a.68.68,0,0,0,.21-.1q4.33-3,8.73-5.95l.08,0,8.52-4.35a.74.74,0,0,1,.36-.09l8.89.05h0l4.08.25a.73.73,0,0,0,.73-.44c1.27-3.84,2.6-7.67,4-11.52a.64.64,0,0,0,0-.2c-.24-3.4-.45-6.81-.64-10.21a.6.6,0,0,1,.15-.41q3-3.24,6.11-6.5c.35-.38.11-.88-.44-.87l-3.42.08a1,1,0,0,0-.48.16l-6.54,4.72-.14.09-3.94,1.78-.11,0-7.29,2.19a.82.82,0,0,0-.25.12q-4.4,3.15-8.72,6.3a.62.62,0,0,0-.14.14q-6.5,8.59-12.5,17.13a.64.64,0,0,1-.27.21l-16,7.31a.61.61,0,0,0-.3.29q-3.6,7.83-6.81,15.6l.4.11q3.54.93,7,1.89A.72.72,0,0,0,857.3,68.33Z"/><path class="cls-2" d="M883.41,157a1.24,1.24,0,0,1-.91-.66c-4-6.45,1.89-9.69-2.08-16.15a.92.92,0,0,0-.23-.25c-7-4.55-11.45-9.55-18.82-14.05a.7.7,0,0,1-.29-.3q-6-12.08-11.79-24.22l0-.13c-1.37-6.48-3.08-12.91-4.24-19.44,0-.09,2.51-5.29,3.57-7.77a3.8,3.8,0,0,1,.54-.93.5.5,0,0,1,.5-.16c3.92.92,7,1.58,10.83,2.53a.78.78,0,0,0,.84-.28q3.91-6.24,8.12-12.51a.7.7,0,0,1,.32-.26l2.42-1a.84.84,0,0,1,.8.09l4.46,3.35c.54.41,1.39,0,1.18-.65q-1.27-3.57-2.52-7.14a.51.51,0,0,1,0-.42q1.68-3.16,3.44-6.35a.81.81,0,0,1,.3-.28q7.45-3.81,15-7.65a.74.74,0,0,1,.46-.09c3.28.26,6.52.53,9.74.81a.58.58,0,0,1,.57.75l-.51,1.59,0,.13c-.62,5.52-2.28,6.86-2.77,12.13a3.29,3.29,0,0,0,0,.77,20.58,20.58,0,0,0,1.18,5.81.67.67,0,0,0,.59.38l5.63.24a.92.92,0,0,0,.33-.06l7.2-3.15a.74.74,0,0,1,.62,0l4.53,2.39a.6.6,0,0,1,.3.38q.7,2.88,1.43,5.76a.53.53,0,0,1,0,.25q-.82,4.35-1.58,8.67a.65.65,0,0,1-.63.53l-2.6.09a.64.64,0,0,1-.28,0l-1.21-.49a.67.67,0,0,0-.92.51c-.17,1.24-.33,2.49-.49,3.73a.66.66,0,0,1-.9.51l-.4-.16a.61.61,0,0,1-.39-.5c-.19-1.73-.38-3.45-.55-5.18a.64.64,0,0,0-.4-.5l-2.3-.9a.72.72,0,0,0-.83.26l-1.9,2.9a.55.55,0,0,0-.09.33c.13,5.93,2.17,13.35,2.49,19.25,0,0-.44,15.42-.83,21.61v0q.18,7.1.58,14.14v0c0,2,1.61,6.85,1.65,8.85a.67.67,0,0,0,.38.59L917,146.9a.69.69,0,0,1,.24.21l1.79,2.39a.56.56,0,0,1,.14.47c-1.17,4.66-1.64,8.33-2.87,13a1.11,1.11,0,0,1-.86.82Z"/><path class="cls-2" d="M951.81,123.78,950.64,120a1.42,1.42,0,0,1,0-.2q-.27-2.78-.52-5.56a.93.93,0,0,0-.54-.75q-5.22-2.19-10.64-4.35a.83.83,0,0,0-.49-.05l-1.69.34a1,1,0,0,1-.24,0l-9.48-.77a.88.88,0,0,0-.52.13l-9.6,5.83a.85.85,0,0,1-.7.09l-2.15-.59a.87.87,0,0,0-1,.44c-.3.64-.6,1.29-.89,1.93a.87.87,0,0,0,0,.77l1.44,2.8a.9.9,0,0,1,.08.23c.4,1.74.81,3.49,1.22,5.23a1,1,0,0,0,1.32.68l1-.5a.91.91,0,0,1,1,.18l4.58,4.46a1,1,0,0,0,.46.26l1.58.34a.75.75,0,0,0,.21,0l5.17-.16a.86.86,0,0,1,.62.23l3.1,2.86a.83.83,0,0,0,.62.24l10.49-.54a.69.69,0,0,0,.41-.15l4.91-3.72a.87.87,0,0,0,.33-.52q.54-2.46,1.12-4.93A1,1,0,0,0,951.81,123.78Z"/><path class="cls-2" d="M955.33,147.45a.45.45,0,0,0,.48-.45q.63-11,1.82-22l-.56-.43c-.33,1.45-.66,2.9-1,4.35a.57.57,0,0,1,0,.14q-1.2,2.31-2.35,4.61l0,.07q-.9,2.72-1.76,5.42a.14.14,0,0,0,0,.06c-.1.52-.19,1-.28,1.56a.58.58,0,0,0,.1.44l1,1.35a.54.54,0,0,1,.07.13l1.68,4.36a.5.5,0,0,0,.39.33Z"/><path class="cls-2" d="M989.22,73.86q-4.86,4.69-9.55,9.36l0,.06-1.69,2.46a.31.31,0,0,0-.06.29l.15.54a.27.27,0,0,0,.43.15l2.6-1.65a.3.3,0,0,1,.38,0c.66.75,1.31,1.5,2,2.26a.21.21,0,0,1,.06.1q1.5,4.92,3,9.85a.37.37,0,0,1-.11.37l-2.83,2.65a.27.27,0,0,1-.47-.16q-.72-6.14-1.39-12.28a.26.26,0,0,0-.31-.24l-1.9.26a.37.37,0,0,0-.3.3q-1.41,7-2.63,13.92a.31.31,0,0,1-.5.22c-1.58-1.47-3.17-2.94-4.79-4.41a.35.35,0,0,1-.08-.33q1.25-4,2.55-8a.28.28,0,0,0-.25-.4q-6.66,0-13.5,0l-.24.73q4.57,1.09,9,2.22a.3.3,0,0,1,.19.41l-.62,1.56a.39.39,0,0,1-.06.11q-2.94,3.36-5.79,6.71a.32.32,0,0,1-.24.11l-12.88.13a.32.32,0,0,0-.32.27c0,.21-.09.42-.14.63a.31.31,0,0,0,.2.36q3.31,1.17,6.56,2.36a.26.26,0,0,1,.14.11q2,2.83,3.87,5.68a.13.13,0,0,1,0,.09q1.41,4.84,2.81,9.69l1.26,4.87a.29.29,0,0,0,.08.14c1.32,1.34,2.62,2.68,3.92,4a.21.21,0,0,0,.18.09c3.16.1,6.29.2,9.39.32h0l4.68-.63a.21.21,0,0,1,.17,0c1.59,1.1,3.16,2.2,4.71,3.32l.09,0,3.66.72a.25.25,0,0,0,.2-.06c.75-.66,1.5-1.32,2.26-2a.43.43,0,0,0,.11-.2l.75-3.35a.32.32,0,0,0-.09-.34l-2-1.59a.37.37,0,0,1,0-.56l3.67-2.45a.19.19,0,0,1,.08,0l5.64-1.39a.33.33,0,0,0,.2-.15c.71-1.23,1.42-2.46,2.15-3.69a.37.37,0,0,0,0-.34c-.54-1.3-1.09-2.61-1.64-3.91a.22.22,0,0,0-.12-.13c-1.72-.78-3.45-1.55-5.21-2.32a.28.28,0,0,1-.16-.3c.17-1.67.34-3.34.52-5a.39.39,0,0,1,.09-.23l2.55-2.89.06,0,3.52-2.61a.42.42,0,0,0,.14-.18c.24-.67.49-1.34.74-2a.77.77,0,0,0,0-.15l-.06-4.41a.36.36,0,0,0,0-.1c-.63-1.81-1.27-3.63-1.92-5.44a.32.32,0,0,1,0-.14q.33-3.22.69-6.46a.4.4,0,0,1,.09-.2l2.18-2.83c.14-.18.11-.43-.07-.49q-5.58-1.93-11.38-3.83h-.1l-4.18.27A.34.34,0,0,0,989.22,73.86Z"/><path class="cls-2" d="M1009.91,100.72a1.9,1.9,0,0,0-.18-1.71q-2.24-3-4.53-6.07l-.51.29,0,4,.12,3.36a1.6,1.6,0,0,0,.32,1l1,1.35a1.24,1.24,0,0,0,1.27.45l.73-.16a2,2,0,0,0,1.4-1.38Z"/><path class="cls-2" d="M981.4,142.41l-1.67-1.75a.59.59,0,0,0-1,.2c-.48.94-1,1.88-1.42,2.82a.67.67,0,0,1-.51.38l-2.83.28a.56.56,0,0,1-.44-.16c-1.95-1.78-3.94-3.55-5.95-5.32a.6.6,0,0,0-.58-.13l-6.58,2.15a.7.7,0,0,0-.46.58l-.18,1a.86.86,0,0,0,.3.8l2.79,2.2a.83.83,0,0,1,.29.74c0,.26,0,.52-.07.78a.66.66,0,0,1-.78.65l-1.5-.36c-.57-.14-1,.58-.66,1.16l1.51,2.72a.81.81,0,0,0,.34.32q6.18,2.75,12.05,5.57a.52.52,0,0,0,.56-.07l4.53-3.59a.54.54,0,0,1,.4-.11l3.6.45a.63.63,0,0,0,.65-.51c.16-.55.33-1.1.5-1.65a.94.94,0,0,0-.16-.85l-.47-.53a.9.9,0,0,1-.2-.57v-3.6a.88.88,0,0,0-.13-.46q-.92-1.53-1.86-3.06A.94.94,0,0,0,981.4,142.41Z"/><path class="cls-2" d="M987.62,156.13a.43.43,0,0,0,.14-.23c.63-1.9,1.27-3.82,1.93-5.73,1-2.59,2-5.18,3.08-7.79a.64.64,0,0,0,0-.43l-1.22-3.42a.42.42,0,0,0-.21-.24q-2.48-1.12-5-2.23a.37.37,0,0,0-.18,0l-4,.52a.54.54,0,0,0-.36.71q2,5.74,3.92,11.51l0,.12q.45,3.63.93,7.25c0,.36.37.53.6.32Z"/><path class="cls-2" d="M995.08,131.67l-4.37,4a.84.84,0,0,0-.06,1.13c.76.75,1.52,1.5,2.26,2.26a.48.48,0,0,0,.64,0l4.66-3.56a.52.52,0,0,1,.26-.1l3.14-.39a.6.6,0,0,0,.37-.23l.57-.7a.84.84,0,0,0,0-1.06l-2.06-2.15a.47.47,0,0,0-.4-.14l-4.73.74A.62.62,0,0,0,995.08,131.67Z"/><path class="cls-2" d="M918.9-1.06a92.46,92.46,0,0,1,80.7,150.57A92.45,92.45,0,1,1,856.54,32.37,91.83,91.83,0,0,1,918.9-1.06m-.85-8.56a101.06,101.06,0,1,0,110.58,90.54A101,101,0,0,0,918.05-9.62Z"/><path class="cls-2" d="M925.25,189.18l-.62-2.42c39.75-10.19,66.14-53.87,61.38-101.59C981.15,36.38,945.89-1.27,904-2.4l.07-2.49c43.14,1.16,79.44,39.77,84.42,89.81C993.37,133.86,966.18,178.68,925.25,189.18Z"/><path class="cls-2" d="M952.15,186.75C909,185.56,872.76,147,867.78,96.94a109.8,109.8,0,0,1,8.52-55.32c11.41-25.76,32-43.76,56.55-49.38l.56,2.43c-23.75,5.44-43.74,22.92-54.83,48a107.35,107.35,0,0,0-8.32,54.07c4.86,48.75,40.09,86.4,82,87.56Z"/><path class="cls-2" d="M854.72,152.45l-.37-2.46c25.85-3.87,52.31-7.16,78.63-9.78,26-2.59,52.23-4.57,78-5.87l.12,2.49c-25.74,1.3-51.94,3.28-77.89,5.86C906.94,145.31,880.53,148.59,854.72,152.45Z"/><path class="cls-2" d="M833.44,102.25l-.6-2.42a670.55,670.55,0,0,1,189.4-19l-.12,2.5A668.09,668.09,0,0,0,833.44,102.25Z"/><path class="cls-2" d="M1006.61,37.07A218.15,218.15,0,0,0,841.17,53.24L840,51a220.67,220.67,0,0,1,167.31-16.35Z"/><rect class="cls-2" x="926.82" y="-6.14" width="2.49" height="194.15" transform="translate(-4.44 92.44) rotate(-5.69)"/><text class="cls-3" transform="translate(44.69 94.23)"><tspan class="cls-4">L</tspan><tspan class="cls-5" x="22.32" y="0">ogoer - Dan</tspan><tspan class="cls-6" x="259.68" y="0">e</tspan><tspan x="284.32" y="0">s </tspan><tspan class="cls-7" x="314.32" y="0">W</tspan><tspan class="cls-8" x="355.32" y="0">orldwide</tspan></text></svg>